# xmcd
#
# Track frame offsets:
#	183
#	8693
#	18630
#	32670
#	42235
#	53643
#	66078
#	78468
#	89053
#	100253
#	110763
#	123553
#	134283
#	143638
#
# Disc length: 2088
#
# Revision: 2
# Processed by: cddbd v1.5.1PL0 Copyright (c) Steve Scherf et al.
# Submitted via: audiograbber 1.82.01
# Normalized: r1:TDELIM( - )
#
DISCID=bd08260e
DTITLE=Various Artist - Rock&Roll Classics
DYEAR=1989
DGENRE=
TTITLE0=Jerry Lee Lewis - Great Balls of Fire
TTITLE1=Roy Orbison - Ooby Dooby
TTITLE2=Huey Piano Smith - Rockin' Pneumonia and the Boogie Woogie Flu
TTITLE3=Little Richard - Good Golly Miss Molly
TTITLE4=Chuck Berry - Rock 'n' Roll Music
TTITLE5=Hank Mitzell - Jungle Rock
TTITLE6=Jerry Lee Lewis - Breathless
TTITLE7=Chuck Berry - Maybelline
TTITLE8=Bo Diddley - Bo Diddley
TTITLE9=Dale Hawkins - Suzie Q
TTITLE10=Carl Perkins - Boppin' the Blues
TTITLE11=Bill Justis - Raunchy
TTITLE12=Billy Lee Riley - Flying Saucers Rock 'n' Roll
TTITLE13=Jerry Lee Lewis - Whole lotta shakin' goin' on
EXTD=
EXTT0=
EXTT1=
EXTT2=
EXTT3=
EXTT4=
EXTT5=
EXTT6=
EXTT7=
EXTT8=
EXTT9=
EXTT10=
EXTT11=
EXTT12=
EXTT13=
PLAYORDER=
